<?xml version="1.0" encoding="utf-8"?>
<!DOCTYPE svg PUBLIC "-//W3C//DTD SVG 1.1//EN" "http://www.w3.org/Graphics/SVG/1.1/DTD/svg11.dtd">
<svg version="1.1" xmlns="http://www.w3.org/2000/svg" xmlns:xlink="http://www.w3.org/1999/xlink" x="0px" y="0px"
	 viewBox="0 0 288.0004 64.4627" enable-background="new 0 0 288.0004 64.4627" xml:space="preserve">
<title>Signature of Chris Basham</title>
<path fill-rule="evenodd" clip-rule="evenodd" d="M74.7122,32.5111c1.2735,0.7896-2.665,6.1065-3.4482,6.4038
	c-0.7832,0.2974-2.7363-1.3505-2.9561-1.9702C68.0892,36.3241,73.4379,31.7211,74.7122,32.5111z M140.2249,26.6
	c2.6817-6.7051,11.1367-14.6636,6.4043-22.6587c-5.9228,4.9136-8.7207,12.9531-13.793,18.7183
	c-0.0312-2.3316,2.6749-6.3706-0.4921-7.3892c-4.7354,8.4009-6.5645,19.7066-18.7178,20.6885
	c-0.7979-0.7417-1.3301-3.0454-2.9561-1.4776c0.2842,9.2144,11.0498,1.8096,14.7774-0.9853
	c-1.3223,8.1367-6.5088,14.2236-5.418,21.1816c2.6211,0.3218,2.3389-2.2583,3.9404-2.9555
	c6.2422,19.8911,35.4258,14.2231,40.3916-1.4781c-0.8886,2.9434-1.9863,8.3921,1.4776,9.3594
	c2.2676,0.1319,2.2041-2.0664,3.9414-2.4629c1.2978,2.9033,5.4355,2.8101,7.8808,0.9849c0.4952,4.1518,9.8252,3.8984,10.3448,0
	c0.8398-2.6465-1.8887-1.7236-1.4776-3.9404c4.6387-3.4063,6.8526-9.2383,11.8213-12.3145
	c1.7002,1.8247,3.5938,5.6167,1.4776,8.3735c4.0429,5.6373,13.7646,6.585,21.6738,5.9112
	c22.0762-1.8819,47.5605-9.3784,66.499-11.3291c-3.208-1.8892-7.3769-1.4258-11.8223-0.9854
	c-6.457,0.6387-14.5683,1.9502-20.6884,2.9556c-17.6866,2.9038-35.8535,9.3725-50.7364,2.9556
	c0.5635-5.8174-3.0654-7.4429-3.9404-11.8223c1.5176-4.23,4.6524-6.8418,4.4336-12.8071c-1.5166,0.3667-0.9463-1.3521-2.4629-0.9854
	c-6.123,1.9985-3.3652,12.2774-6.4033,16.2554c-3.1504,4.1235-8.0108,8.2353-12.3145,10.8369
	c-1.5586-2.5474-0.5898-7.6206-4.4336-7.8814c-0.832,5.5708-1.5449,11.2623-6.4033,12.8072
	c-1.4258-4.2608,1.7559-10.2329-1.9707-13.2998c-3.8369,0.4321-4.5332,4.0053-6.8965,5.9111
	C169.428,31.0922,153.3587,25.4418,140.2249,26.6z M132.3441,33.9887c-0.3243-1.4751-1.0528,0.4712-1.9707,0
	c3.832-9.1392,8.0068-17.9361,14.7783-24.1367c-2.1875,9.3071-8.4336,14.5542-11.8223,22.6591
	c6,1.0865,9.8096-3.4795,16.7481-2.9555c26.2402,1.9819,6.6308,40.0117-13.793,32.018
	c-10.9873-4.3003-13.541-18.7622-4.4326-27.5849C132.015,33.9887,132.1801,33.9887,132.3441,33.9887z M180.1244,50.7367
	c1.1563,0.1568,1.1026,1.5244,1.9707,1.9702c-0.7031,1.9244-2.0156,3.2383-3.9404,3.941
	C179.553,55.4193,179.1176,52.3568,180.1244,50.7367z M39.7387,30.0482c4.3652-7.5961,8.1924-16.3261,8.8662-27.5849
	c-0.3838-0.1084-0.5723-0.4121-0.4922-0.9849c-1.0849-0.7217-2.1162-1.4971-3.9414-1.478
	c-9.668,11.6767-14.8193,27.8711-18.2256,45.8105c-5.1953,3.2183-9.5127,12.1621-17.7324,10.837
	c-5.6738-0.9151-4.8652-9.814-3.9404-15.2701c1.3535-7.9912,7.417-20.3955,11.3291-26.5996
	c2.7842-4.4165,6.1074-9.3984,9.8515-9.852c1.2061,9.5634-4.1806,17.1948-2.4629,26.1069c1.7295,0.2891,1.6202-2.3281,2.9551-0.9849
	c0.4824-10.6518,4.7676-20.3823,0.4932-29.5551c-3.6758,0.0844-7.5322,3.7485-10.3447,7.3886
	C10.7602,14.787,5.7377,26.4579,2.7944,34.4813c-1.8672,5.0899-3.5215,13.48-2.4629,18.7183
	c2.7099,13.4087,20.0488,3.1109,25.122-1.9702c0.4551,2.915-1.0927,4.772,0,6.896c3.8116,0.3628,4.9483-1.9478,4.9258-5.4185
	c3.5986-3.4614,5.0986-9.0219,9.8516-11.3291c-1.128,6.8741-0.8906,14.3399,4.4336,14.2847
	c4.9238-0.0508,4.6445-6.875,7.8808-9.8516c0.9131,4.9029-2.2949,10.7735,2.9561,11.3296c3.5937,0.3799,6.165-4.935,8.8662-7.3886
	c1.6748,4.5683,7.8008,8.8652,11.3291,3.4477c1.8594,1.6021,5.2617,2.5503,8.374,1.478
	c-1.8662-4.8662-2.6728-10.7915-7.3887-12.8071c-2.4355,3.3106-2.6318,8.8608-6.4033,10.8364
	c-1.7734-3.4062-0.5879-7.8955-5.9111-8.3735c-2.5918,3.1934-4.5947,9.4736-9.3594,8.8662
	c0.6651-2.7964,1.5947-6.2168,1.4785-8.3735c-2.4433-1.0054-3.6591-3.2383-6.4043-3.9409
	c-2.0234,4.0512-0.9326,11.2177-6.4033,11.8217c-3.1474-4.8022,1.6279-11.894-0.4922-17.2402
	c-6.915,1.9512-8.3593,9.3735-13.7929,12.8071C31.9418,41.4491,36.2397,36.1356,39.7387,30.0482z M45.1567,3.4486
	c0.7959-0.1386,0.8486,0.4654,1.4775,0.4927c-2.3184,13.0811-8.2705,26.4434-16.7471,34.9736
	C33.2778,25.393,37.1996,12.4032,45.1567,3.4486z M77.1751,47.289c2.4844,0.3066,2.2998,3.2822,2.9551,5.4179
	c-1.1924,1.1348-2.3926-0.5019-3.9404-0.4922C75.43,50.578,76.642,49.0003,77.1751,47.289z"/>
</svg>
